# xmcd
#
# Track frame offsets:
#	150
#	13299
#	24848
#	35894
#	48480
#	63225
#	76510
#	89188
#	105152
#	118372
#	131181
#	145630
#	160619
#	175097
#	190014
#	203294
#	217507
#	230418
#	244072
#	257705
#
# Disc length: 3583 seconds
#
# Revision: 0
# Processed by: cddbd v1.5.2PL0 Copyright (c) Steve Scherf et al.
# Submitted via: EasyCDDAExtractor 16.0.6.1
#
DISCID=010dfd14
DTITLE=Συλλογικός δίσκος - Τραγούδια 45 στροφές-Περπινιάδης Βαγγέλης 4
DYEAR=2001
DGENRE=Λαϊκή
TTITLE0=Περπινιάδης Βαγγέλης-Καλάκη Ρούλα - Στερνή μου γνώση [Γιώργος Μανισαλή
TTITLE0=ς]
TTITLE1=Περπινιάδης Βαγγέλης-Καλάκη Ρούλα - Πυρ, γυνή και θάλασσα [Μπάμπης Μπα
TTITLE1=κάλης-Γ. Μητρόπουλος]
TTITLE2=Περπινιάδης Βαγγέλης-Καλάκη Ρούλα - Τα νησιώτικα παιδιά [Β. Περπινιάδη
TTITLE2=ς-Γ. Μπούρας]
TTITLE3=Περπινιάδης Βαγγέλης-Καλάκη Ρούλα - Ποιος είδε αηδόνι στο κλουβί [Γ. Μ
TTITLE3=ανισαλής-Κώστας Βίρβος]
TTITLE4=Περπινιάδης Βαγγέλης - Πού θα πας-πού θα πας [Μπάμπης Μπακάλης]
TTITLE5=Περπινιάδης Βαγγέλης-Νόρμα Ρία - Μην απελπίζεσαι [Δημήτρης Γκούτης]
TTITLE6=Περπινιάδης Βαγγέλης-Καλάκη Ρούλα - Ο γυρισμός του ξενιτεμένου [Μπάμπη
TTITLE6=ς Μπακάλης-Χρ. Μίγκος]
TTITLE7=Περπινιάδης Βαγγέλης-Νόρμα Ρία - Ο βράχος, ο ξερόβραχος [Τάκης Λαβίδας
TTITLE7=]
TTITLE8=Περπινιάδης Βαγγέλης-Νόρμα Ρία - Η κυρα Νίτσα απ' τα Μεσόγεια [Λ. Τσαγ
TTITLE8=γάρης]
TTITLE9=Περπινιάδης Βαγγέλης-Νόρμα Ρία - Ποια οργή μ' έχει ρημάξει [Λ. Τσαγγάρ
TTITLE9=ης]
TTITLE10=Περπινιάδης Βαγγέλης-Νόρμα Ρία - Η τιμωρία των παραστρατημένων [Δημήτ
TTITLE10=ρης Γκούτης]
TTITLE11=Περπινιάδης Βαγγέλης - Πώς ν' αφήσω τέτοια μάννα [Δημήτρης Γκούτης]
TTITLE12=Περπινιάδης Βαγγέλης - Άνοιξέ μου την καρδιά σου [Γ. Μανισαλής]
TTITLE13=Περπινιάδης Βαγγέλης - Μαννούλα μου, μαννούλα μου [Κ. Γιαννίδη]
TTITLE14=Περπινιάδης Βαγγέλης - Παληοκόριτσο [Β. Περπινιάδης]
TTITLE15=Περπινιάδης Βαγγέλης - Θα κλάψης για μένα [Τάκης Λαβίδας]
TTITLE16=Περπινιάδης Βαγγέλης-Καλάκη Ρούλα - Σ' ένα βουνό στην ερημιά [Θεόδωρο
TTITLE16=ς Δερβενιώτης]
TTITLE17=Περπινιάδης Βαγγέλης-Καλάκη Ρούλα - Ο άσωτος πατέρας [Γιώργος Μανισαλ
TTITLE17=ής]
TTITLE18=Περπινιάδης Βαγγέλης-Καλάκη Ρούλα - Στον ανώμαλο τον δρόμο [Μπάμπης Ν
TTITLE18=πακάλης]
TTITLE19=Περπινιάδης Βαγγέλης-Καλάκη Ρούλα - Οι αναστεναγμοί 
EXTD=
EXTT0=
EXTT1=
EXTT2=
EXTT3=
EXTT4=
EXTT5=
EXTT6=
EXTT7=
EXTT8=
EXTT9=
EXTT10=
EXTT11=
EXTT12=
EXTT13=
EXTT14=
EXTT15=
EXTT16=
EXTT17=
EXTT18=
EXTT19=
PLAYORDER=
